<?xml version="1.0" standalone="no"?>
<!DOCTYPE svg PUBLIC "-//W3C//DTD SVG 20010904//EN"
 "http://www.w3.org/TR/2001/REC-SVG-20010904/DTD/svg10.dtd">
<svg version="1.0" xmlns="http://www.w3.org/2000/svg"
 width="270.000000pt" height="270.000000pt" viewBox="0 0 270.000000 270.000000"
 preserveAspectRatio="xMidYMid meet">
<metadata>
Created by potrace 1.11, written by Peter Selinger 2001-2013
</metadata>
<g transform="translate(0.000000,270.000000) scale(0.100000,-0.100000)"
fill="#000000" stroke="none">
<path d="M503 1964 c-14 -36 7 -136 37 -180 16 -25 30 -47 30 -50 0 -3 -35
-22 -77 -42 -77 -36 -80 -37 -211 -37 l-132 -1 -34 -65 c-27 -51 -32 -69 -24
-85 31 -58 109 -165 153 -209 63 -63 204 -157 270 -180 116 -40 102 -21 107
-158 3 -102 7 -129 25 -162 30 -55 68 -80 120 -79 75 2 138 47 243 174 106
127 119 138 269 204 13 6 72 11 130 11 171 0 250 -41 440 -228 121 -119 178
-157 233 -157 44 0 73 22 100 73 31 60 31 222 -1 362 -12 55 -26 109 -31 120
-5 11 -23 56 -40 100 -33 83 -104 220 -121 230 -14 9 -11 25 6 25 8 0 36 32
62 71 27 40 62 83 80 96 30 23 32 23 41 6 6 -10 12 -31 15 -48 3 -16 10 -61
16 -98 16 -95 59 -160 111 -172 57 -12 110 13 179 83 101 105 131 163 97 191
-30 25 -62 8 -112 -58 -27 -36 -66 -78 -87 -95 -48 -39 -69 -29 -80 40 -32
184 -56 239 -117 264 -65 27 -177 -57 -244 -183 l-24 -46 -23 26 c-13 14 -47
41 -76 59 l-52 34 -328 6 c-242 5 -342 3 -383 -6 -30 -7 -77 -11 -105 -9 -89
6 -159 4 -201 -4 l-42 -8 -17 44 c-17 46 -52 80 -132 130 -49 31 -61 33 -70
11z m1292 -306 c29 -13 43 -53 28 -77 -5 -9 -21 -22 -35 -30 -23 -13 -29 -13
-52 2 -34 23 -37 78 -4 101 27 19 30 19 63 4z m-608 -13 c79 -33 126 -103 126
-185 0 -102 -64 -173 -175 -194 -75 -14 -182 34 -214 96 -40 77 -24 186 35
242 55 53 156 71 228 41z m505 -102 c19 -17 24 -59 9 -81 -11 -18 -75 -20 -95
-3 -20 17 -21 65 0 85 20 21 63 20 86 -1z m200 -40 c39 -35 11 -103 -43 -103
-35 0 -59 24 -59 57 0 55 62 83 102 46z m-122 -103 c24 -24 25 -48 4 -78 -31
-44 -104 -17 -104 39 0 55 60 79 100 39z"/>
<path d="M1070 1561 c-13 -4 -38 -25 -54 -48 -34 -49 -31 -76 13 -126 25 -27
36 -32 74 -32 51 0 82 21 104 73 12 28 12 37 -2 65 -27 55 -83 83 -135 68z"/>
</g>
</svg>
